<svg xmlns="http://www.w3.org/2000/svg" viewBox="0 0 40.84 27.97"><defs><style>.cls-1{fill:#ee83b5;}</style></defs><g id="Layer_2" data-name="Layer 2"><g id="Layer_1-2" data-name="Layer 1"><path class="cls-1" d="M5.35,28A5.36,5.36,0,0,1,0,22.62V5.35A5.36,5.36,0,0,1,5.35,0H35.49a5.36,5.36,0,0,1,5.35,5.35V22.62A5.36,5.36,0,0,1,35.49,28Zm30.14-4a1.35,1.35,0,0,0,1.35-1.35V5.35A1.36,1.36,0,0,0,35.49,4H5.35A1.36,1.36,0,0,0,4,5.35V22.62A1.35,1.35,0,0,0,5.35,24Z"/><path class="cls-1" d="M20.25,18.9a2,2,0,0,1-1.2-.4L5.52,8.26A2,2,0,0,1,7.93,5.07l12.34,9.34L32.93,5.12A2,2,0,1,1,35.3,8.34L21.44,18.51A2,2,0,0,1,20.25,18.9Z"/></g></g></svg>