<svg xmlns="http://www.w3.org/2000/svg" viewBox="0 0 285.39 285.39"><defs><style>.cls-1{fill:#d2fcdc;}.cls-2{fill:#fcd0e6;}.cls-3{fill:#ffe3f0;}.cls-4{fill:#fffdae;}.cls-5{fill:#00a33d;}.cls-6{fill:#ee83b5;}.cls-7{fill:#f8c0d8;}.cls-8{fill:#ff0;}</style></defs><g id="Layer_2" data-name="Layer 2"><g id="Layer_1-2" data-name="Layer 1"><circle class="cls-1" cx="142.7" cy="142.7" r="142.7"/><path class="cls-2" d="M207.82,15.69a142.74,142.74,0,0,1,16.59,10A35.67,35.67,0,0,0,207.82,15.69Z"/><path class="cls-2" d="M279.15,100.85a42.44,42.44,0,0,0-14.59,0q-15.66,2.63-61.67,23,.53-2.41,1-6.42,24.3-31.12,30.08-51Q239.7,45,226.22,27.82c-.58-.74-1.18-1.43-1.81-2.11a142.74,142.74,0,0,0-16.59-10,48.45,48.45,0,0,0-5.37-1.23Q187.09,11.82,174.13,22a37.79,37.79,0,0,0-13.86,21.34q-1.91,8.35-2,27.74-.36,21.61-2.3,34l-4.65-.78-10-12.71q-2-2.49-4-8.73c-1.38-4.14-2.66-7-3.83-8.46Q113.56,49,100.07,43.05q-15.18-7-31.13,5.49-13,10.17-13.17,25t12.1,30.57q4.69,6,17.46,16.09,14.39,11.67,21,18.56-5.06.75-36.77,1.88-19.26.6-29,8.23-10.47,8.22-12.47,22.86t6,24.87q8.2,10.47,23.22,13.18,16.11,3.08,31.82-5.63l22.89-13.93q9.7-5.59,16.15-3Q103,215.1,96.68,238.37t6,39c.87,1.11,1.76,2.14,2.66,3.12a143.38,143.38,0,0,0,36.84,4.94l.15-.12Q167.77,265.32,169.1,228q.17-1.33-.45-14.95-.37-6.14,1.86-7.89,2.49-1.95,5.64,0,13.86,34.62,16.41,37.85,11.41,14.56,24.52,21.44a143.38,143.38,0,0,0,45.28-44,31.08,31.08,0,0,0-2-2.82q-8-10.23-25.33-23.82T215.2,177c-.91-1.17-1.22-2.93-.94-5.31q6.7-1.21,16.62.66,14.13,2.61,17,2.73,21.42,1.22,34.5-3.26a143.7,143.7,0,0,0-3.27-71Z"/><path class="cls-2" d="M99.67,179.05Q86,189.81,74,191.17t-18.66-7.1q-9.59-12.21.88-20.43,7.48-5.87,22.43-6.31,17-.44,35,7.15A78,78,0,0,1,99.67,179.05Z"/><path class="cls-2" d="M86.37,94.87q-9-11.48,2-20.07,13.47-10.56,29.3,9.63Q133.08,104.11,131.8,124,109.24,124,86.37,94.87Z"/><path class="cls-2" d="M153.63,227.3q-4.32,22.72-13.79,30.15-11.72,9.19-19.73-1-7-9-1.78-26.39,4.9-16.32,15.87-24.93-1,.78,11-5.43l5.47,7Q156.19,213.63,153.63,227.3Z"/><path class="cls-2" d="M187.53,155.81a16.85,16.85,0,0,1-6.73,12.72,26.13,26.13,0,0,1-17.05,5.73q-9.57-.13-14.46-6.37-5.07-6.48-3.88-15.47a21,21,0,0,1,23.23-18.63A18.84,18.84,0,0,1,182.55,141,21.35,21.35,0,0,1,187.53,155.81Z"/><path class="cls-2" d="M191.84,105.12l-8.22,6.45a4.53,4.53,0,0,1-4.73-1.92q-7-9-3.84-30.81T187.22,50q10.47-8.2,16.33-.74,8.61,11,4.06,29T191.84,105.12Z"/><path class="cls-2" d="M238.14,220.58q9.59,12.21-.63,20.23-5.23,4.09-13.6,1.4a30.47,30.47,0,0,1-14.62-10.67q-16-20.44-15.72-38,7.05-2.29,19.75,4.64Q226.61,205.88,238.14,220.58Z"/><path class="cls-2" d="M276.34,147.13q-13.71,10.76-54.38,5.62L213,146.48a31.13,31.13,0,0,1,8.9-10.21A63.44,63.44,0,0,1,253.41,123q17.54-2.28,23.8,5.69,2.54,3.24,2.45,9.55T276.34,147.13Z"/><path class="cls-3" d="M78.6,157.33q-14.94.45-22.43,6.31-10.45,8.22-.88,20.43,6.65,8.48,18.66,7.1t25.72-12.12a78,78,0,0,0,13.93-14.57Q95.57,156.91,78.6,157.33Z"/><path class="cls-3" d="M145.23,199.67q-12,6.21-11,5.43-11,8.6-15.87,24.93-5.26,17.41,1.78,26.39,8,10.21,19.73,1,9.47-7.44,13.79-30.15,2.55-13.68-2.93-20.66Z"/><path class="cls-3" d="M117.63,84.43q-15.84-20.19-29.3-9.63-11,8.6-2,20.07Q109.25,124,131.8,124,133.07,104.12,117.63,84.43Z"/><path class="cls-4" d="M168.64,133.79a21,21,0,0,0-23.23,18.63q-1.2,9,3.88,15.47,4.89,6.23,14.46,6.37a26.13,26.13,0,0,0,17.05-5.73,16.85,16.85,0,0,0,6.73-12.72,21.35,21.35,0,0,0-5-14.81A18.84,18.84,0,0,0,168.64,133.79Z"/><path class="cls-3" d="M193.57,193.54q-.3,17.57,15.72,38a30.47,30.47,0,0,0,14.62,10.67q8.35,2.7,13.6-1.4,10.22-8,.63-20.23-11.53-14.7-24.82-22.4Q200.63,191.24,193.57,193.54Z"/><path class="cls-3" d="M207.61,78.26q4.54-18.08-4.06-29-5.87-7.47-16.33.74-9,7-12.17,28.88t3.84,30.81a4.53,4.53,0,0,0,4.73,1.92l8.22-6.45Q203.06,96.32,207.61,78.26Z"/><path class="cls-3" d="M277.21,128.73q-6.27-8-23.8-5.69a63.44,63.44,0,0,0-31.49,13.23,31.13,31.13,0,0,0-8.9,10.21l8.94,6.27q40.66,5.13,54.38-5.62,3.24-2.53,3.32-8.85T277.21,128.73Z"/><path class="cls-5" d="M49.61,170.6a23.42,23.42,0,0,1-4.8-.2c0,.27,0,.65,0,1.15s0,1,0,1.49,0,1,0,1.49,0,.88,0,1.15c0,4.47-.48,7.8-1.43,10-1.39,3.3-4.06,4.94-8,4.94a11.36,11.36,0,0,1-7.65-3.18v.07a9.8,9.8,0,0,1-3.38-7.58q0-6,12.11-10.42l1.66-.47,3.15-.88a8.9,8.9,0,0,1-.1-1.15c0-.5-.08-1.13-.17-1.9,0-.49-.1-1-.14-1.42q-1.56,2.78-3.25,2.77A4,4,0,0,1,34,163.84a11.07,11.07,0,0,1-1-4.94,53.27,53.27,0,0,1,1.82-12q2.18-8.26,4.47-8.26c1.08,0,2.44,1,4.06,3v-.07A10.09,10.09,0,0,0,47.79,145q-3.59,6.63-3.59,16.11c0,1.53.14,3.68.41,6.43a50.58,50.58,0,0,1,6.09-.41c2.34,0,3.52.79,3.52,2.37q0,1.83-2.1,1.83A7.14,7.14,0,0,1,49.61,170.6Zm-7.71,3.73c0-.82-.11-1.81-.2-3a14,14,0,0,0-5.35.81q-8.59,3.72-8.59,8.39a6.14,6.14,0,0,0,2.3,4.74,7.19,7.19,0,0,0,4.94,2q7,0,7-11.17C42,175.75,41.94,175.14,41.9,174.33ZM39.8,143q-.19.54-1.62,5.69a44,44,0,0,0-1.83,11.43c0,2.4.32,3.59.95,3.59,1.13,0,2.32-2.53,3.59-7.58a43.15,43.15,0,0,0,1.69-9.47Q42.58,143,39.8,143Z"/><path class="cls-5" d="M55.57,162.55a10,10,0,0,1-.68-4.26c0-.5-.07-1-.07-1.42v-2.51c0-.58,0-1.31.07-2.16l.14-5.15c0-.54-.63-1.24-1.9-2.1a58.68,58.68,0,0,1-1.49,6v-.14a4.12,4.12,0,0,0-.4,1.15,4.36,4.36,0,0,0-.48,1l-1.69-.61a22.85,22.85,0,0,1,.75-4.6c.22-1,.4-1.94.54-2.71a11.92,11.92,0,0,0,.2-1.89,9.07,9.07,0,0,0-.54-2.1,7.68,7.68,0,0,1-.47-2.37q0-3.85,2.16-3.86c1.31,0,2,.88,2,2.64V138a8,8,0,0,1-.06,1.36v.2l-.14,2a13.1,13.1,0,0,0,2.37,1.49c2,1.17,3,2.48,3,3.93,0,.72,0,1.61-.1,2.67s-.2,2.31-.38,3.75S58,156,58,157.07s-.1,1.92-.1,2.64c0,1.62.38,2.43,1.15,2.43q.67,0,2.84-6.7c.68-2.16,1.22-4,1.63-5.41a22.49,22.49,0,0,0,.74-3.45c.18-1.35.7-2,1.56-2s1.08.52,1.08,1.56q0,2.56-2.5,10.08Q61.46,165,59.43,165A4.43,4.43,0,0,1,55.57,162.55Z"/><path class="cls-5" d="M81,152.47q-1.82,4.13-4.67,4.12a4.13,4.13,0,0,1-1.69-.47,14.4,14.4,0,0,0-.4,1.9,1.36,1.36,0,0,1,0,.2c0,.09,0,.25-.1.47a33.9,33.9,0,0,1-1.83,4.47h.07a4.31,4.31,0,0,1-3.65,2.3q-5.28,0-5.28-10.15a24.9,24.9,0,0,1,1-8.26,10.57,10.57,0,0,1-.13-1.62,2.47,2.47,0,0,1,.47-1.15c0-.18.09-.41.14-.68s.11-.63.2-1.08l.2-.75c.45-1.8,1.38-2.7,2.78-2.7a6.11,6.11,0,0,1,3.79,1.49,6.76,6.76,0,0,1,2.5,3.31Q75,145.7,75,153a1.46,1.46,0,0,0,1,.4,2.84,2.84,0,0,0,2.71-2.16,27.68,27.68,0,0,0,1.28-4.94c.18-1.13.63-1.69,1.35-1.69a1.07,1.07,0,0,1,1.22,1.21A15.69,15.69,0,0,1,81,152.47Zm-9.47,1.25c-.09-.65-.23-1.43-.41-2.34s-.3-1.7-.37-2.4-.1-1.3-.1-1.79a7.07,7.07,0,0,1,.07-1.42c0-.5.08-.86.1-1.09a1.35,1.35,0,0,1,0-.27q0-1.62-1.35-1.62-.81,0-1.83,5.68c-.31,1.72-.54,3.22-.67,4.5a30.44,30.44,0,0,0-.21,3.15c0,4.2.72,6.29,2.17,6.29.22,0,.65-.72,1.28-2.16a14.23,14.23,0,0,0,1.42-4.87A12.38,12.38,0,0,0,71.54,153.72Z"/><path class="cls-5" d="M82,141.3c.63,0,1.49.54,2.57,1.62A38.89,38.89,0,0,0,82,157.14c0,2.88.4,4.46,1.22,4.73A15.83,15.83,0,0,0,85.68,153c0-.41,0-.92.07-1.52s.11-1.3.2-2.07.16-1.45.21-2.06.06-1.12.06-1.53a1.69,1.69,0,0,0,0-.3c0-.11-.06-.28-.1-.51l-.27-1.15a3.07,3.07,0,0,1,2.3-1.08q2.1,0,2.1,1.83a5,5,0,0,0-.17.74q-.18.81-.51,2.37c-.18,1.89-.3,3.39-.37,4.5s-.1,1.84-.1,2.2a17.53,17.53,0,0,0,.2,2.37c.13,1,.36,2.19.68,3.58h-.07a.78.78,0,0,0,.81.55c.41,0,1-1.81,1.76-5.42.22-1,.39-1.94.51-2.71a13.77,13.77,0,0,0,.17-1.89,9.6,9.6,0,0,0-.11-1.29c-.06-.49-.14-1.06-.23-1.69l-.24-1.69a9.29,9.29,0,0,1-.1-1.29,32.4,32.4,0,0,1,.07-3.45v.07a3.32,3.32,0,0,1,1.76-2.77,3.22,3.22,0,0,1,2,2.64l.27,9.33q.06.48,1,.48c1.08,0,1.87-.93,2.36-2.78a7.13,7.13,0,0,0,.14-.74c0-.32.11-.7.2-1.15.36-1.31.9-2,1.63-2s1.15.45,1.15,1.35a15,15,0,0,1-1.15,4.94c-1,2.44-2.08,3.65-3.39,3.65a7.1,7.1,0,0,1-2.77-.6l-1.08,6.42c-.68,2.4-2,3.59-3.79,3.59-1.49,0-2.78-1.19-3.86-3.59Q85.41,165,83.11,165q-4.06,0-4.06-7.65,0-4.4.41-8.66a38.87,38.87,0,0,1,.74-6.36A1.76,1.76,0,0,1,82,141.3Z"/><path class="cls-5" d="M108.69,155.17c-1,3.48-1.71,5.64-2,6.5q-1.35,3.26-3.45,3.25-3.93,0-3.93-7.11,0-2.43.41-7.31c.27-3.24.41-5.68.41-7.3a2.42,2.42,0,0,1,1.82-.88c1.45,0,2.17.54,2.17,1.62l-.81,4c-.37,2-.65,3.8-.85,5.45a38.13,38.13,0,0,0-.3,4.57c0,2.48.38,3.72,1.15,3.72.45,0,1-1,1.62-3l1.9-6.49c.4-1.49.88-3.41,1.42-5.75.31-1.4.81-2.1,1.49-2.1s1.15.54,1.15,1.62S110.13,150.17,108.69,155.17Zm-5-23.41a2.75,2.75,0,0,1-2.13-1,3.47,3.47,0,0,1-.91-2.34,2.81,2.81,0,0,1,.84-1.82,2.36,2.36,0,0,1,1.66-1c1.76,0,2.64,1,2.64,3.05S105.08,131.76,103.68,131.76Z"/><path class="cls-5" d="M126.69,155.24q-3.18,9.75-5.48,9.75c-1.9,0-3.18-1.7-3.86-5.08-.09-.59-.2-1.46-.34-2.64s-.24-2.64-.33-4.4c-.41,1.45-.79,2.88-1.15,4.3s-.73,2.85-1.09,4.3c-.49,2.16-1.35,3.25-2.57,3.25q-2.5,0-3-3.19l-.28-4.87c0-.81-.07-1.45-.1-1.93s0-.75,0-.84c0-.36,0-.75,0-1.15s.06-.86.1-1.36l.21-2.16-.61-1.22a9.66,9.66,0,0,1,.4-2.71v.07a2,2,0,0,1,2.17-1.49,1.65,1.65,0,0,1,1.9,1.83,5.14,5.14,0,0,1-.48,1.83q-.14.87-.24,1.32a4.23,4.23,0,0,0-.1.57v1.42c0,.59,0,1.27-.06,2s-.07,1.45-.07,2v1.42c0,2.44.11,3.77.34,4a2,2,0,0,1,.2-1.22v.07q.54-2.37,1.42-5l-.07.07a54.5,54.5,0,0,0,1.49-5.28,30.14,30.14,0,0,0,.68-4.54c.13-2,.58-3.25,1.35-3.79q4.07.34,4.06,2.71h-.61a14.43,14.43,0,0,1-.06,3.72c-.23,2.26-.4,4-.51,5.38s-.17,2.23-.17,2.68q0,6.28,1.15,6.29t3-6.36q.75-2.5,1.29-4.47c.36-1.31.65-2.41.88-3.31.32-1.67.86-2.51,1.62-2.51s1.15.52,1.15,1.56Q128.92,148.28,126.69,155.24Z"/><path class="cls-5" d="M140.77,170.6c-3.07,0-4.67-.06-4.81-.2,0,.27,0,.65,0,1.15s0,1,0,1.49,0,1,0,1.49,0,.88,0,1.15c0,4.47-.48,7.8-1.42,10q-2.1,5-8,4.94a11.38,11.38,0,0,1-7.65-3.18v.07a9.8,9.8,0,0,1-3.38-7.58q0-6,12.11-10.42l1.66-.47,3.15-.88a8.9,8.9,0,0,1-.1-1.15c0-.5-.08-1.13-.17-1.9-.05-.49-.09-1-.14-1.42q-1.56,2.78-3.25,2.77a4,4,0,0,1-3.79-2.63,11.07,11.07,0,0,1-1-4.94,52.81,52.81,0,0,1,1.83-12q2.16-8.26,4.46-8.26,1.64,0,4.06,3v-.07a10.19,10.19,0,0,0,4.47,3.45q-3.58,6.63-3.59,16.11c0,1.53.14,3.68.41,6.43a50.58,50.58,0,0,1,6.09-.41c2.34,0,3.52.79,3.52,2.37q0,1.83-2.1,1.83A7,7,0,0,1,140.77,170.6Zm-7.72,3.73c0-.82-.11-1.81-.2-3a14.08,14.08,0,0,0-5.35.81q-8.59,3.72-8.59,8.39a6.17,6.17,0,0,0,2.3,4.74,7.21,7.21,0,0,0,4.94,2q7,0,7-11.17C133.12,175.75,133.1,175.14,133.05,174.33ZM131,143q-.19.54-1.62,5.69a44,44,0,0,0-1.83,11.43c0,2.4.32,3.59.95,3.59,1.13,0,2.32-2.53,3.59-7.58a43.15,43.15,0,0,0,1.69-9.47Q133.73,143,131,143Z"/><path class="cls-5" d="M164.72,140.69c1.67,0,2.5.57,2.5,1.69a13.21,13.21,0,0,1-.81,2.44c0,.5-.2,2.12-.61,4.87v-.07c-.18,1.31-.31,2.46-.4,3.46s-.14,1.8-.14,2.43q0,5.42,1.22,5.42c.77,0,1.8-2.21,3.11-6.64.36-1.35.74-2.7,1.12-4.06s.76-2.73,1.12-4.12c.31-1,.79-1.43,1.42-1.43s1.15.48,1.15,1.43q0,2.16-2.17,9.2-2.83,9-5.95,9c-1.13,0-2.12-.83-3-2.5v.06l-.68-1.69-.81,1.76L161,163.7a3.62,3.62,0,0,1-3.18,1.76,3.39,3.39,0,0,1-3.11-2,8.37,8.37,0,0,1-.88-3.93q0-13.8.94-15.36a1.91,1.91,0,0,1,1.7-.94,2.16,2.16,0,0,1,1.59.74,2.41,2.41,0,0,1,.71,1.69,4.29,4.29,0,0,1-.27,1.63v-.07c-.05.18-.12.39-.21.64s-.18.55-.27.91l.07-.06a49,49,0,0,0-.68,5.55q-.19,3-.2,6.29c0,1.44.2,2.17.61,2.17s.68-.43,1.22-1.29v.07a24.74,24.74,0,0,0,2-6l1.21-6.09a28.94,28.94,0,0,0,.68-5.82,1.28,1.28,0,0,0-.07-.37,1.62,1.62,0,0,1-.06-.37C162.83,141.41,163.46,140.69,164.72,140.69Z"/><path class="cls-5" d="M182.59,157.75q-1.83,8.17-6.3,8.18a3.12,3.12,0,0,1-2.57-1.49,2.43,2.43,0,0,0-.17-.3c-.07-.11-.17-.26-.3-.44q-.48,3.26-.71,6.63c-.16,2.26-.24,4.6-.24,7q0,5.28,1.08,7.51c0,.72-.49,1.09-1.49,1.09-1.76,0-2.64-2.83-2.64-8.46q0-5.41,1.43-18.34.54-5.55.84-9.68c.2-2.75.31-5,.31-6.84v-.54a1.8,1.8,0,0,1-.34-1c0-1,.54-1.48,1.62-1.48s1.76.83,1.76,2.5c0,.14,0,.49-.07,1s-.06.94-.06,1.12v.74l.2-.47.34-.88c1.12-2.75,2.12-4.13,3-4.13q3.17,0,4.46,2.1a10.45,10.45,0,0,1,.95,5A50.09,50.09,0,0,1,182.59,157.75Zm-4.4-14.08a7.84,7.84,0,0,0-.48,1.28c-.13.5-.4,1.31-.81,2.44q-2.7,7.58-2.84,10.42c.81.5,1.22,1,1.22,1.56a1.43,1.43,0,0,1-.41.88c0,.23,0,.34-.13.34a3.37,3.37,0,0,0,.5,1.72c.34.57.71.85,1.12.85q1.62,0,3-5l.07-.34a28.2,28.2,0,0,0,1.08-6.9V150a5.13,5.13,0,0,0,.07-1.08v-2.1c0-3-.48-4.47-1.43-4.47C178.82,142.38,178.5,142.81,178.19,143.67Z"/><path class="cls-5" d="M204.38,162.55a9.87,9.87,0,0,1-.68-4.26,14.19,14.19,0,0,1-.07-1.42v-2.51c0-.58,0-1.31.07-2.16l.13-5.15q0-.81-1.89-2.1a61.4,61.4,0,0,1-1.49,6v-.14A4,4,0,0,0,200,152a4.54,4.54,0,0,0-.47,1l-1.69-.61a23.39,23.39,0,0,1,.74-4.6c.23-1,.41-1.94.54-2.71a11,11,0,0,0,.21-1.89,9.07,9.07,0,0,0-.54-2.1,7.73,7.73,0,0,1-.48-2.37q0-3.85,2.17-3.86c1.31,0,2,.88,2,2.64V138a6.63,6.63,0,0,1-.07,1.36v.2l-.13,2a13.1,13.1,0,0,0,2.37,1.49q3,1.75,3,3.93c0,.72,0,1.61-.1,2.67s-.19,2.31-.37,3.75-.3,2.62-.37,3.66-.1,1.92-.1,2.64c0,1.62.38,2.43,1.15,2.43.45,0,1.39-2.23,2.84-6.7.68-2.16,1.22-4,1.62-5.41a21.57,21.57,0,0,0,.75-3.45c.18-1.35.7-2,1.55-2s1.09.52,1.09,1.56q0,2.56-2.51,10.08-2.91,8.79-4.94,8.8A4.41,4.41,0,0,1,204.38,162.55Z"/><path class="cls-5" d="M229.82,152.47c-1.22,2.75-2.77,4.12-4.67,4.12a4.13,4.13,0,0,1-1.69-.47,13.73,13.73,0,0,0-.41,1.9,1.06,1.06,0,0,1,0,.2c0,.09-.06.25-.1.47a33.9,33.9,0,0,1-1.83,4.47h.07a4.31,4.31,0,0,1-3.66,2.3q-5.28,0-5.27-10.15a24.63,24.63,0,0,1,1-8.26,10.57,10.57,0,0,1-.13-1.62,2.47,2.47,0,0,1,.47-1.15c0-.18.09-.41.13-.68s.12-.63.21-1.08l.2-.75c.45-1.8,1.38-2.7,2.77-2.7a6.07,6.07,0,0,1,3.79,1.49,6.79,6.79,0,0,1,2.51,3.31c.4,1.22.61,4.27.61,9.14a1.44,1.44,0,0,0,.94.4,2.82,2.82,0,0,0,2.71-2.16,26.48,26.48,0,0,0,1.29-4.94c.18-1.13.63-1.69,1.35-1.69a1.07,1.07,0,0,1,1.22,1.21A15.84,15.84,0,0,1,229.82,152.47Zm-9.47,1.25c-.1-.65-.23-1.43-.41-2.34s-.3-1.7-.37-2.4-.1-1.3-.1-1.79a8.57,8.57,0,0,1,.06-1.42c.05-.5.08-.86.11-1.09a1.35,1.35,0,0,1,0-.27q0-1.62-1.35-1.62c-.55,0-1.15,1.89-1.83,5.68-.32,1.72-.54,3.22-.68,4.5s-.2,2.34-.2,3.15c0,4.2.72,6.29,2.16,6.29q.34,0,1.29-2.16a14.23,14.23,0,0,0,1.42-4.87A12.38,12.38,0,0,0,220.35,153.72Z"/><path class="cls-5" d="M231.11,165.87a4.29,4.29,0,0,1-1.63-.34,4.43,4.43,0,0,1-1.42-.95,6.31,6.31,0,0,1-1-1.35,3.23,3.23,0,0,1-.4-1.56c0-1.17.32-1.83,1-2s.94.54.94,1.62c.45,1.22,1,1.83,1.63,1.83q2.1,0,2.1-4.33a33.79,33.79,0,0,0-1.15-6.63,13.83,13.83,0,0,0-.61-2.1q-1.42,6.22-2.91,6.22c.09,0,0,0-.17,0l-1-.1q2.43-10.42,2.43-14.89,0-2.37,2.1-2.37c1.54,0,2.3.63,2.3,1.9a7.9,7.9,0,0,1-.27,1.72,7.94,7.94,0,0,0-.27,1.66,31.54,31.54,0,0,0,1.36,7.38A32.4,32.4,0,0,1,235.5,159Q235.5,165.87,231.11,165.87Z"/><path class="cls-5" d="M246.8,155.17c-1,3.48-1.71,5.64-2,6.5q-1.35,3.26-3.45,3.25-3.91,0-3.92-7.11,0-2.43.4-7.31c.27-3.24.41-5.68.41-7.3a2.43,2.43,0,0,1,1.83-.88q2.16,0,2.16,1.62l-.81,4c-.36,2-.64,3.8-.85,5.45a38.13,38.13,0,0,0-.3,4.57c0,2.48.38,3.72,1.15,3.72.45,0,1-1,1.63-3l1.89-6.49q.61-2.24,1.42-5.75c.32-1.4.81-2.1,1.49-2.1s1.15.54,1.15,1.62S248.25,150.17,246.8,155.17Zm-5-23.41a2.74,2.74,0,0,1-2.13-1,3.48,3.48,0,0,1-.92-2.34,2.78,2.78,0,0,1,.85-1.82,2.32,2.32,0,0,1,1.66-1c1.76,0,2.63,1,2.63,3.05S243.2,131.76,241.8,131.76Z"/><path class="cls-5" d="M260,150.5a55.91,55.91,0,0,1-2.57,9q-2.51,6.17-6,6.16a5.18,5.18,0,0,1-4.78-3,12.63,12.63,0,0,1-1.31-6c0-1.44.05-2.91.17-4.4s.28-3,.52-4.53q1.23-7.51,4.11-7.51A4.18,4.18,0,0,1,253,141.4a3.63,3.63,0,0,1,1.29,2.74,27.24,27.24,0,0,1-2.78,11q-.67,1.48-1.32,2.67c-.43.79-.82,1.5-1.18,2.13a2.74,2.74,0,0,0,1,2c.54.77,1.06,1.15,1.55,1.15q2.37,0,6.16-14.21c.72-2.75,1.31-4.13,1.76-4.13a1.26,1.26,0,0,1,1.42,1.43A26.05,26.05,0,0,1,260,150.5Zm-8.86-7.17a.93.93,0,0,0-.21.41,45.48,45.48,0,0,0-2.23,11.84,12.9,12.9,0,0,0,.78-1.79c.25-.7.48-1.48.71-2.34a26.76,26.76,0,0,0,1.22-6.56Q251.41,143.33,251.14,143.33Z"/><path class="cls-6" d="M113.63,132.74a2.64,2.64,0,0,1-.75,1.95,2.9,2.9,0,0,1-2.17.83,5.19,5.19,0,0,1-3.14-1.61c-.12-.1-.42-.42-.91-1a3.49,3.49,0,0,0-1-.83.53.53,0,0,0-.19.36,13.31,13.31,0,0,0,.4,2,12.08,12.08,0,0,1,.4,2.64,2.35,2.35,0,0,1-.82,1.78,2.61,2.61,0,0,1-1.81.75,2.23,2.23,0,0,1-1.91-1.19,5.42,5.42,0,0,1-.77-3,27,27,0,0,1,.8-3.07.35.35,0,0,0-.34-.27c-.15,0-.31.13-.49.39-.4.57-.63.88-.68.93a5.53,5.53,0,0,1-4.34,2.19,1.83,1.83,0,0,1-1.44-.64,2.43,2.43,0,0,1-.58-1.73,3.24,3.24,0,0,1,1.49-2.64A10.07,10.07,0,0,1,99.75,129a1.46,1.46,0,0,0-1.13-.59l-2-.24A3.57,3.57,0,0,1,94.39,127a2.82,2.82,0,0,1-.78-1.9,2.44,2.44,0,0,1,.81-1.79,2.58,2.58,0,0,1,1.84-.79,3.79,3.79,0,0,1,2.15.87c1.31,1,2.08,1.5,2.31,1.63a19.34,19.34,0,0,0-.39-2.11,9.07,9.07,0,0,1-.29-1.81,3.73,3.73,0,0,1,.72-2.42,2.42,2.42,0,0,1,2-.89,2.2,2.2,0,0,1,2.15,1.14,8.17,8.17,0,0,1,.53,3.49,2.45,2.45,0,0,1-.17.69,2.52,2.52,0,0,0-.17.72V125l.24.27a19.17,19.17,0,0,0,1.76-2,10.2,10.2,0,0,1,1.44-1.58,2.9,2.9,0,0,1,1.85-.63,2.68,2.68,0,0,1,2.07.88,2.87,2.87,0,0,1,.8,1.94,3.23,3.23,0,0,1-1.36,2.71,13,13,0,0,1-4.24,1.65,4.68,4.68,0,0,1-.37.34,26.44,26.44,0,0,1,4.83,1.54A2.73,2.73,0,0,1,113.63,132.74Z"/><path class="cls-7" d="M99.94,126.89a6.56,6.56,0,0,0-1.78-2.09,2.92,2.92,0,0,0-1.65-.68c-.69,0-1,.4-1,1.19a1.51,1.51,0,0,0,.79,1.32,4.11,4.11,0,0,0,2.14.48A5.82,5.82,0,0,0,99.94,126.89Z"/><path class="cls-7" d="M100.18,131.21v-.68a5.81,5.81,0,0,1-.92-.2,3.68,3.68,0,0,0-2.15.76A2.16,2.16,0,0,0,96,132.77c0,.66.38,1,1.14,1a3.81,3.81,0,0,0,2.27-1.17A1.94,1.94,0,0,0,100.18,131.21Z"/><path class="cls-7" d="M104,122.24c0-1.31-.43-2-1.31-2-.72,0-1.07.37-1.07,1.12,0,1.9.45,3.21,1.36,3.92A4.45,4.45,0,0,0,104,122.24Z"/><path class="cls-8" d="M105.23,128.75a1.46,1.46,0,0,0-.5-1.1,1.63,1.63,0,0,0-2.29,0,1.51,1.51,0,0,0-.5,1.13,1.36,1.36,0,0,0,.57,1.07,2,2,0,0,0,1.3.46,1.31,1.31,0,0,0,1-.45A1.68,1.68,0,0,0,105.23,128.75Z"/><path class="cls-7" d="M104.81,136.2a6.61,6.61,0,0,0-.44-2.53c-.29-.68-.61-1.09-1-1.22a4.71,4.71,0,0,0-.85,3,2.34,2.34,0,0,0,.37,1.34,1.08,1.08,0,0,0,.89.57C104.48,137.4,104.81,137,104.81,136.2Z"/><path class="cls-7" d="M110.85,124.19c0-.49-.34-.73-1-.73a3.43,3.43,0,0,0-2.11,1.17,3.16,3.16,0,0,0-1.23,2.05.36.36,0,0,0,.2.34h.8a3.68,3.68,0,0,0,2.23-.88A2.45,2.45,0,0,0,110.85,124.19Z"/><path class="cls-7" d="M111.54,132.5c0-.52-.39-1-1.17-1.48a4.92,4.92,0,0,0-2.54-.69,2.41,2.41,0,0,0-1,.2l.24.8c1.48,1.49,2.67,2.24,3.56,2.24a.84.84,0,0,0,.62-.38A1.11,1.11,0,0,0,111.54,132.5Z"/><path class="cls-6" d="M251.57,133a2.64,2.64,0,0,1-.76,1.95,2.89,2.89,0,0,1-2.17.83,5.24,5.24,0,0,1-3.14-1.61c-.11-.1-.41-.42-.9-1a3.52,3.52,0,0,0-1-.83.53.53,0,0,0-.19.36,13.31,13.31,0,0,0,.4,2,11.5,11.5,0,0,1,.4,2.64,2.37,2.37,0,0,1-.81,1.78,2.64,2.64,0,0,1-1.82.75,2.24,2.24,0,0,1-1.91-1.19,5.5,5.5,0,0,1-.77-3,25.9,25.9,0,0,1,.81-3.07.35.35,0,0,0-.34-.27c-.15,0-.31.13-.49.39l-.68.93a5.55,5.55,0,0,1-4.34,2.19,1.84,1.84,0,0,1-1.45-.64,2.47,2.47,0,0,1-.57-1.73,3.23,3.23,0,0,1,1.48-2.64,10.07,10.07,0,0,1,4.34-1.59,1.43,1.43,0,0,0-1.12-.59l-2.05-.24a3.57,3.57,0,0,1-2.19-1.17,2.82,2.82,0,0,1-.78-1.9,2.42,2.42,0,0,1,.82-1.79,2.55,2.55,0,0,1,1.84-.79,3.79,3.79,0,0,1,2.14.87c1.32,1,2.09,1.5,2.31,1.63a15.78,15.78,0,0,0-.39-2.12,8.89,8.89,0,0,1-.29-1.8,3.73,3.73,0,0,1,.72-2.42,2.42,2.42,0,0,1,2-.89,2.18,2.18,0,0,1,2.14,1.14,8,8,0,0,1,.54,3.49,2.45,2.45,0,0,1-.17.69,2.22,2.22,0,0,0-.17.72v1.24l.24.27a20.58,20.58,0,0,0,1.75-1.95,10.74,10.74,0,0,1,1.44-1.58,2.92,2.92,0,0,1,1.85-.63,2.65,2.65,0,0,1,2.07.88,2.84,2.84,0,0,1,.81,1.94,3.24,3.24,0,0,1-1.37,2.71,12.93,12.93,0,0,1-4.24,1.65,3.45,3.45,0,0,1-.36.34,26,26,0,0,1,4.82,1.54A2.74,2.74,0,0,1,251.57,133Z"/><path class="cls-7" d="M237.87,127.15a6.53,6.53,0,0,0-1.77-2.09,3,3,0,0,0-1.66-.68c-.68,0-1,.4-1,1.19a1.49,1.49,0,0,0,.79,1.32,4.1,4.1,0,0,0,2.13.48A5.82,5.82,0,0,0,237.87,127.15Z"/><path class="cls-7" d="M238.12,131.47v-.69a6.4,6.4,0,0,1-.93-.19,3.66,3.66,0,0,0-2.14.76A2.15,2.15,0,0,0,233.9,133c0,.66.38,1,1.15,1a3.79,3.79,0,0,0,2.26-1.17A1.94,1.94,0,0,0,238.12,131.47Z"/><path class="cls-7" d="M241.92,122.5c0-1.31-.44-2-1.32-2-.71,0-1.07.37-1.07,1.12,0,1.9.46,3.21,1.37,3.92A4.43,4.43,0,0,0,241.92,122.5Z"/><path class="cls-8" d="M243.16,129a1.46,1.46,0,0,0-.5-1.1,1.63,1.63,0,0,0-2.29,0,1.55,1.55,0,0,0-.5,1.13,1.36,1.36,0,0,0,.57,1.07,2,2,0,0,0,1.31.46,1.31,1.31,0,0,0,1-.45A1.63,1.63,0,0,0,243.16,129Z"/><path class="cls-7" d="M242.75,136.46a6.8,6.8,0,0,0-.44-2.53,2.06,2.06,0,0,0-1-1.22,4.77,4.77,0,0,0-.85,3,2.4,2.4,0,0,0,.38,1.35,1.08,1.08,0,0,0,.89.56C242.41,137.66,242.75,137.26,242.75,136.46Z"/><path class="cls-7" d="M248.79,124.45c0-.49-.34-.73-1-.73a3.4,3.4,0,0,0-2.11,1.17,3.16,3.16,0,0,0-1.23,2,.35.35,0,0,0,.19.34h.81a3.7,3.7,0,0,0,2.23-.88A2.47,2.47,0,0,0,248.79,124.45Z"/><path class="cls-7" d="M249.47,132.76c0-.52-.39-1-1.17-1.48a4.89,4.89,0,0,0-2.53-.69,2.59,2.59,0,0,0-1,.19l.25.81c1.48,1.49,2.66,2.24,3.56,2.24a.85.85,0,0,0,.62-.38A1.14,1.14,0,0,0,249.47,132.76Z"/><path class="cls-5" d="M49.4,149.65S47.11,162.12,46,163a2.39,2.39,0,0,0,3.06,1.26c1.23-2.19,1.69-9.78,2.52-13S49.4,149.65,49.4,149.65Z"/><path class="cls-5" d="M198.67,147.73s-2.29,12.47-3.41,13.31a2.39,2.39,0,0,0,3.06,1.26c1.23-2.19,1.69-9.78,2.53-13S198.67,147.73,198.67,147.73Z"/></g></g></svg>