<svg xmlns="http://www.w3.org/2000/svg" viewBox="0 0 226.74 69.91"><defs><style>.cls-1{fill:#00a33d;}.cls-2{fill:#ee83b5;}.cls-3{fill:#f8c0d8;}.cls-4{fill:#ff0;}</style></defs><g id="Layer_2" data-name="Layer 2"><g id="Layer_1-2" data-name="Layer 1"><path class="cls-1" d="M24.08,50.69a23,23,0,0,1-4.61-.19c0,.26,0,.62,0,1.1s0,.95,0,1.43,0,.95,0,1.43,0,.84,0,1.1c0,4.28-.45,7.49-1.36,9.61q-2,4.74-7.66,4.74a10.86,10.86,0,0,1-7.33-3.06v.07A9.37,9.37,0,0,1,0,59.65q0-5.77,11.62-10l1.59-.45,3-.85a10,10,0,0,1-.1-1.1c0-.48-.07-1.08-.16-1.82,0-.47-.09-.93-.13-1.36-1,1.77-2,2.66-3.12,2.66A3.82,3.82,0,0,1,9.09,44.2a10.51,10.51,0,0,1-1-4.74A50.78,50.78,0,0,1,9.87,28q2.07-7.92,4.28-7.92,1.56,0,3.9,2.86v-.07a9.68,9.68,0,0,0,4.28,3.31A32.12,32.12,0,0,0,18.89,41.6q0,2.2.39,6.17a48.3,48.3,0,0,1,5.84-.39c2.25,0,3.38.76,3.38,2.27,0,1.17-.67,1.75-2,1.75A6.74,6.74,0,0,1,24.08,50.69Zm-7.4,3.57c0-.78-.11-1.73-.19-2.86a13.4,13.4,0,0,0-5.13.78q-8.25,3.57-8.24,8a5.91,5.91,0,0,0,2.2,4.55,6.88,6.88,0,0,0,4.74,1.94q6.69,0,6.69-10.71C16.75,55.62,16.73,55,16.68,54.26Zm-2-30.06q-.2.53-1.56,5.46a42.2,42.2,0,0,0-1.75,11c0,2.29.3,3.44.91,3.44q1.62,0,3.44-7.27a41,41,0,0,0,1.62-9.09Q17.33,24.2,14.67,24.2Z"/><path class="cls-1" d="M29.8,43a9.58,9.58,0,0,1-.65-4.09,13.1,13.1,0,0,1-.07-1.37v-2.4c0-.56,0-1.25.07-2.08l.13-4.93c0-.52-.61-1.19-1.82-2A59,59,0,0,1,26,31.86v-.12a3.46,3.46,0,0,0-.39,1.1,3.83,3.83,0,0,0-.45,1l-1.63-.58a22,22,0,0,1,.72-4.42c.21-1,.39-1.86.52-2.59A10.79,10.79,0,0,0,25,24.4a8.6,8.6,0,0,0-.52-2A7.57,7.57,0,0,1,24,20.12c0-2.47.69-3.71,2.08-3.71S28,17.26,28,19v.45a6,6,0,0,1-.07,1.3v.19l-.13,1.95a12.89,12.89,0,0,0,2.27,1.43Q32.92,26,32.91,28c0,.7,0,1.55-.1,2.57s-.18,2.22-.35,3.6-.3,2.51-.36,3.51-.1,1.84-.1,2.53q0,2.34,1.11,2.34c.43,0,1.34-2.15,2.72-6.43Q36.8,33,37.39,31a20.45,20.45,0,0,0,.71-3.31c.18-1.3.67-1.95,1.5-1.95s1,.5,1,1.49q0,2.47-2.41,9.67-2.79,8.45-4.73,8.44A4.24,4.24,0,0,1,29.8,43Z"/><path class="cls-1" d="M54.2,33.29q-1.76,4-4.48,4a4.07,4.07,0,0,1-1.62-.45,12.24,12.24,0,0,0-.39,1.82,1,1,0,0,1,0,.19c0,.09-.06.24-.1.46a33.85,33.85,0,0,1-1.75,4.28h.06a4.14,4.14,0,0,1-3.5,2.21q-5.07,0-5.07-9.74a23.65,23.65,0,0,1,1-7.92,9.83,9.83,0,0,1-.13-1.56,2.47,2.47,0,0,1,.45-1.1,5.29,5.29,0,0,0,.13-.65c0-.26.11-.61.2-1l.19-.71c.43-1.73,1.32-2.6,2.66-2.6a5.89,5.89,0,0,1,3.64,1.43,6.52,6.52,0,0,1,2.4,3.18q.58,1.75.59,8.76a1.38,1.38,0,0,0,.9.39,2.7,2.7,0,0,0,2.6-2.08,26.17,26.17,0,0,0,1.23-4.73c.18-1.09.61-1.63,1.3-1.63a1,1,0,0,1,1.17,1.17A15.1,15.1,0,0,1,54.2,33.29Zm-9.09,1.2c-.08-.62-.21-1.37-.38-2.24a20.19,20.19,0,0,1-.36-2.3,16.7,16.7,0,0,1-.1-1.72,6.5,6.5,0,0,1,.07-1.36c0-.48.07-.83.09-1s0-.3,0-.26c0-1-.44-1.56-1.3-1.56q-.78,0-1.76,5.45c-.3,1.65-.51,3.09-.64,4.32a30.17,30.17,0,0,0-.2,3c0,4,.69,6,2.08,6,.21,0,.62-.7,1.23-2.08a13.63,13.63,0,0,0,1.36-4.68A11.46,11.46,0,0,0,45.11,34.49Z"/><path class="cls-1" d="M55.11,22.58c.61,0,1.43.52,2.47,1.56a37.3,37.3,0,0,0-2.4,13.63c0,2.77.39,4.29,1.16,4.55a15.18,15.18,0,0,0,2.34-8.51c0-.39,0-.87.07-1.46s.1-1.24.19-2,.15-1.39.2-2,.06-1.07.06-1.46a1.68,1.68,0,0,0,0-.29c0-.11-.06-.27-.1-.49l-.26-1.1A3,3,0,0,1,61,24c1.34,0,2,.58,2,1.75,0,0-.05.2-.16.72s-.27,1.27-.49,2.27q-.26,2.73-.36,4.32c-.06,1.06-.09,1.76-.09,2.11a17.54,17.54,0,0,0,.19,2.27c.13.95.35,2.1.65,3.44h-.06a.75.75,0,0,0,.77.52c.39,0,1-1.73,1.69-5.2.22-1,.38-1.86.49-2.59a12.68,12.68,0,0,0,.16-1.82,8.42,8.42,0,0,0-.1-1.23c-.06-.48-.14-1-.22-1.63s-.17-1.14-.23-1.62a10.24,10.24,0,0,1-.1-1.23,29.54,29.54,0,0,1,.07-3.31v.06a3.19,3.19,0,0,1,1.69-2.66,3.11,3.11,0,0,1,1.88,2.53l.26,9c0,.3.36.45,1,.45,1,0,1.8-.88,2.27-2.66a5.14,5.14,0,0,0,.13-.71c0-.3.11-.67.2-1.1q.51-1.89,1.56-1.89c.73,0,1.1.44,1.1,1.3a14.35,14.35,0,0,1-1.1,4.74c-.91,2.34-2,3.51-3.25,3.51a6.71,6.71,0,0,1-2.66-.59l-1,6.17q-1,3.44-3.64,3.44c-1.42,0-2.66-1.15-3.7-3.44-1,2.94-2.23,4.41-3.7,4.41q-3.89,0-3.89-7.33,0-4.23.39-8.31a38,38,0,0,1,.71-6.1A1.71,1.71,0,0,1,55.11,22.58Z"/><path class="cls-1" d="M80.75,35.89q-1.48,5-2,6.23c-.86,2.08-2,3.12-3.31,3.12q-3.76,0-3.76-6.82c0-1.56.13-3.89.39-7s.39-5.45.39-7a2.34,2.34,0,0,1,1.75-.84c1.38,0,2.08.52,2.08,1.55l-.78,3.83q-.53,2.86-.81,5.23a35.05,35.05,0,0,0-.3,4.38q0,3.57,1.11,3.57c.43,0,1-1,1.56-2.92L78.93,33q.58-2.14,1.37-5.52c.3-1.34.78-2,1.43-2s1.1.52,1.1,1.56S82.14,31.09,80.75,35.89ZM76,13.43a2.67,2.67,0,0,1-2-1A3.33,3.33,0,0,1,73,10.18a2.7,2.7,0,0,1,.81-1.75,2.22,2.22,0,0,1,1.59-.91c1.69,0,2.53,1,2.53,2.92S77.29,13.43,76,13.43Z"/><path class="cls-1" d="M98,36Q95,45.31,92.76,45.3q-2.73,0-3.7-4.87c-.09-.56-.19-1.4-.32-2.53s-.24-2.53-.33-4.22c-.39,1.39-.76,2.76-1.1,4.12s-.7,2.74-1,4.13C85.79,44,85,45,83.8,45c-1.6,0-2.57-1-2.92-3l-.26-4.67c0-.78-.07-1.4-.1-1.85s0-.73,0-.81q0-.52,0-1.11c0-.39.06-.82.1-1.3l.2-2.07L80.23,29a8.91,8.91,0,0,1,.39-2.6v.07a2,2,0,0,1,2.08-1.43c1.21,0,1.82.58,1.82,1.75a5,5,0,0,1-.46,1.75c-.09.57-.16,1-.23,1.27a3.55,3.55,0,0,0-.09.55v1.37c0,.56,0,1.21-.07,1.94s-.06,1.39-.06,2V37c0,2.34.1,3.62.32,3.83-.09-.17,0-.56.2-1.17v.07c.34-1.51.8-3.12,1.36-4.8l-.07.06a48.66,48.66,0,0,0,1.43-5.06,27.49,27.49,0,0,0,.65-4.35c.13-1.91.56-3.12,1.3-3.64q3.9.33,3.9,2.6h-.59a14.23,14.23,0,0,1-.06,3.57c-.22,2.16-.38,3.88-.49,5.16s-.16,2.13-.16,2.56c0,4,.36,6,1.1,6s1.71-2,2.92-6.1c.48-1.6.89-3,1.24-4.28s.62-2.32.84-3.19q.45-2.4,1.56-2.4c.73,0,1.1.5,1.1,1.5C100.16,28.64,99.45,31.5,98,36Z"/><path class="cls-1" d="M111.52,50.69a23,23,0,0,1-4.61-.19c0,.26,0,.62,0,1.1s0,.95,0,1.43,0,.95,0,1.43,0,.84,0,1.1c0,4.28-.45,7.49-1.36,9.61q-2,4.74-7.66,4.74a10.9,10.9,0,0,1-7.34-3.06v.07a9.39,9.39,0,0,1-3.24-7.27q0-5.77,11.62-10l1.59-.45,3-.85a8,8,0,0,1-.1-1.1c0-.48-.08-1.08-.16-1.82,0-.47-.09-.93-.13-1.36-1,1.77-2,2.66-3.12,2.66a3.82,3.82,0,0,1-3.64-2.53,10.65,10.65,0,0,1-1-4.74A51.24,51.24,0,0,1,97.3,28q2.08-7.92,4.29-7.92,1.56,0,3.89,2.86v-.07a9.65,9.65,0,0,0,4.29,3.31q-3.45,6.36-3.44,15.45,0,2.2.39,6.17a48.17,48.17,0,0,1,5.84-.39c2.25,0,3.37.76,3.37,2.27,0,1.17-.67,1.75-2,1.75A6.71,6.71,0,0,1,111.52,50.69Zm-7.4,3.57c0-.78-.11-1.73-.19-2.86a13.4,13.4,0,0,0-5.13.78q-8.25,3.57-8.25,8a5.92,5.92,0,0,0,2.21,4.55,6.88,6.88,0,0,0,4.74,1.94q6.69,0,6.68-10.71C104.18,55.62,104.16,55,104.12,54.26Zm-2-30.06q-.19.53-1.56,5.46a42.2,42.2,0,0,0-1.75,11c0,2.29.3,3.44.91,3.44,1.08,0,2.22-2.42,3.44-7.27a41,41,0,0,0,1.62-9.09Q104.77,24.2,102.11,24.2Z"/><path class="cls-1" d="M134.5,22q2.4,0,2.4,1.62a12.58,12.58,0,0,1-.78,2.34c0,.47-.19,2-.58,4.67v-.06c-.18,1.25-.31,2.36-.39,3.31s-.13,1.73-.13,2.33q0,5.2,1.17,5.2c.73,0,1.73-2.12,3-6.36.35-1.3.71-2.6,1.07-3.9s.73-2.62,1.07-4c.31-.91.76-1.36,1.37-1.36s1.1.45,1.1,1.36q0,2.08-2.08,8.83Q139,44.66,136,44.65c-1.08,0-2-.8-2.86-2.4v.07l-.64-1.63-.78,1.69-.78,1.69a3.45,3.45,0,0,1-3.05,1.69,3.25,3.25,0,0,1-3-1.95,8.09,8.09,0,0,1-.84-3.77c0-8.82.3-13.74.91-14.73a1.82,1.82,0,0,1,1.62-.91,2.07,2.07,0,0,1,1.52.71,2.29,2.29,0,0,1,.69,1.63,3.9,3.9,0,0,1-.26,1.55v-.06c-.05.17-.11.38-.2.62a8.67,8.67,0,0,0-.26.87l.07-.06a45.54,45.54,0,0,0-.65,5.32q-.19,2.87-.2,6c0,1.38.2,2.08.59,2.08s.65-.42,1.17-1.24v.07A23.08,23.08,0,0,0,131,36.21l1.17-5.84a28.57,28.57,0,0,0,.65-5.58,1.48,1.48,0,0,0-.06-.36,1.18,1.18,0,0,1-.07-.35C132.68,22.69,133.29,22,134.5,22Z"/><path class="cls-1" d="M151.63,38.36c-1.16,5.23-3.18,7.85-6,7.85a3,3,0,0,1-2.47-1.43l-.16-.29c-.07-.11-.16-.25-.29-.42-.31,2.08-.53,4.2-.68,6.36s-.23,4.41-.23,6.75c0,3.38.34,5.78,1,7.21,0,.69-.48,1-1.43,1q-2.53,0-2.53-8.12,0-5.19,1.36-17.59.53-5.32.81-9.28c.2-2.64.29-4.83.29-6.56v-.52a1.82,1.82,0,0,1-.32-.91c0-.95.52-1.43,1.56-1.43s1.68.81,1.68,2.41c0,.13,0,.46-.06,1s-.07.9-.07,1.07v.72c.05-.09.11-.24.2-.46s.19-.49.32-.84q1.63-4,2.86-4,3,0,4.28,2a10,10,0,0,1,.91,4.81A47.43,47.43,0,0,1,151.63,38.36Zm-4.21-13.51a8.36,8.36,0,0,0-.46,1.24c-.13.47-.39,1.25-.78,2.33q-2.6,7.28-2.72,10c.77.48,1.16,1,1.16,1.49a1.35,1.35,0,0,1-.39.85c0,.22,0,.32-.13.32a3.22,3.22,0,0,0,.49,1.66c.33.54.68.81,1.07.81q1.56,0,2.86-4.8l.06-.33a26.62,26.62,0,0,0,1-6.62V31a4.18,4.18,0,0,0,.07-1v-2c0-2.85-.46-4.28-1.37-4.28Q147.87,23.62,147.42,24.85Z"/><path class="cls-1" d="M172.54,43a9.58,9.58,0,0,1-.65-4.09,13.1,13.1,0,0,1-.07-1.37v-2.4c0-.56,0-1.25.07-2.08L172,28.1c0-.52-.61-1.19-1.82-2a59,59,0,0,1-1.43,5.77v-.12a3.46,3.46,0,0,0-.39,1.1,3.83,3.83,0,0,0-.45,1l-1.63-.58a22,22,0,0,1,.72-4.42c.21-1,.39-1.86.52-2.59a10.79,10.79,0,0,0,.19-1.82,8.6,8.6,0,0,0-.52-2,7.57,7.57,0,0,1-.45-2.27c0-2.47.69-3.71,2.08-3.71s1.88.85,1.88,2.54v.45a6,6,0,0,1-.07,1.3v.19l-.13,1.95a12.79,12.79,0,0,0,2.28,1.43Q175.65,26,175.65,28c0,.7,0,1.55-.1,2.57s-.18,2.22-.35,3.6-.29,2.51-.36,3.51-.1,1.84-.1,2.53q0,2.34,1.11,2.34c.43,0,1.34-2.15,2.72-6.43q1-3.12,1.56-5.19a21.85,21.85,0,0,0,.72-3.31c.17-1.3.67-1.95,1.49-1.95s1,.5,1,1.49q0,2.47-2.4,9.67-2.8,8.45-4.74,8.44A4.24,4.24,0,0,1,172.54,43Z"/><path class="cls-1" d="M196.94,33.29c-1.16,2.64-2.66,4-4.47,4a4.07,4.07,0,0,1-1.63-.45,13.81,13.81,0,0,0-.39,1.82,1,1,0,0,1,0,.19c0,.09,0,.24-.1.46a32.37,32.37,0,0,1-1.75,4.28h.07a4.16,4.16,0,0,1-3.51,2.21q-5.07,0-5.06-9.74a23.7,23.7,0,0,1,1-7.92,9.83,9.83,0,0,1-.13-1.56,2.47,2.47,0,0,1,.45-1.1,5.29,5.29,0,0,0,.13-.65c0-.26.11-.61.2-1l.19-.71c.44-1.73,1.32-2.6,2.67-2.6a5.88,5.88,0,0,1,3.63,1.43,6.52,6.52,0,0,1,2.4,3.18q.58,1.75.59,8.76a1.38,1.38,0,0,0,.91.39,2.7,2.7,0,0,0,2.59-2.08,25.85,25.85,0,0,0,1.24-4.73c.17-1.09.6-1.63,1.29-1.63a1,1,0,0,1,1.17,1.17A15,15,0,0,1,196.94,33.29Zm-9.08,1.2c-.09-.62-.22-1.37-.39-2.24a20.19,20.19,0,0,1-.36-2.3,16.7,16.7,0,0,1-.1-1.72,6.5,6.5,0,0,1,.07-1.36c0-.48.07-.83.09-1s0-.3,0-.26c0-1-.44-1.56-1.3-1.56-.52,0-1.11,1.82-1.75,5.45-.31,1.65-.52,3.09-.65,4.32a30.17,30.17,0,0,0-.2,3c0,4,.69,6,2.08,6,.22,0,.63-.7,1.23-2.08A13.71,13.71,0,0,0,188,36.08,13.26,13.26,0,0,0,187.86,34.49Z"/><path class="cls-1" d="M198.18,46.15a4,4,0,0,1-1.56-.33,4.22,4.22,0,0,1-1.36-.91,5.62,5.62,0,0,1-1-1.3,3,3,0,0,1-.39-1.49c0-1.12.31-1.75.91-1.88s.91.52.91,1.56c.43,1.17.95,1.75,1.56,1.75q2,0,2-4.15a32.29,32.29,0,0,0-1.1-6.37,13.42,13.42,0,0,0-.59-2q-1.36,6-2.79,6c.09,0,0,0-.16,0l-1-.1q2.34-10,2.34-14.28c0-1.51.67-2.27,2-2.27s2.21.61,2.21,1.82a7.71,7.71,0,0,1-.26,1.65,7.86,7.86,0,0,0-.26,1.59,30.27,30.27,0,0,0,1.3,7.08,31.22,31.22,0,0,1,1.43,7.14Q202.4,46.15,198.18,46.15Z"/><path class="cls-1" d="M213.24,35.89q-1.5,5-2,6.23Q210,45.24,208,45.24q-3.76,0-3.77-6.82c0-1.56.13-3.89.39-7s.39-5.45.39-7a2.35,2.35,0,0,1,1.75-.84c1.39,0,2.08.52,2.08,1.55L208,28.94q-.51,2.86-.81,5.23a36.93,36.93,0,0,0-.29,4.38c0,2.38.37,3.57,1.1,3.57.44,0,1-1,1.56-2.92L211.42,33q.59-2.14,1.36-5.52c.3-1.34.78-2,1.43-2s1.1.52,1.1,1.56S214.62,31.09,213.24,35.89Zm-4.81-22.46a2.63,2.63,0,0,1-2-1,3.29,3.29,0,0,1-.88-2.24,2.7,2.7,0,0,1,.81-1.75,2.22,2.22,0,0,1,1.59-.91c1.69,0,2.54,1,2.54,2.92S209.77,13.43,208.43,13.43Z"/><path class="cls-1" d="M225.89,31.41A53.74,53.74,0,0,1,223.43,40Q221,45.95,217.65,46A5,5,0,0,1,213.06,43a12.27,12.27,0,0,1-1.25-5.71c0-1.39.05-2.79.16-4.22s.28-2.88.5-4.35c.79-4.8,2.11-7.21,3.95-7.21a4,4,0,0,1,2.79,1.14,3.48,3.48,0,0,1,1.23,2.63,26.12,26.12,0,0,1-2.66,10.51c-.43,1-.85,1.81-1.27,2.57s-.79,1.44-1.13,2a2.68,2.68,0,0,0,.91,1.89c.52.73,1,1.1,1.49,1.1q2.28,0,5.91-13.63c.69-2.64,1.25-4,1.69-4a1.2,1.2,0,0,1,1.36,1.36A24.89,24.89,0,0,1,225.89,31.41Zm-8.5-6.88a.79.79,0,0,0-.19.39,43.75,43.75,0,0,0-2.15,11.36,12.41,12.41,0,0,0,.75-1.72c.24-.67.47-1.42.68-2.24a25.55,25.55,0,0,0,1.17-6.3C217.65,25,217.56,24.53,217.39,24.53Z"/><path class="cls-2" d="M85.49,14.37a2.52,2.52,0,0,1-.72,1.87,2.78,2.78,0,0,1-2.08.8,5,5,0,0,1-3-1.55c-.11-.09-.39-.4-.86-.93a3.61,3.61,0,0,0-.94-.8.56.56,0,0,0-.18.36A12.76,12.76,0,0,0,78.07,16a11.08,11.08,0,0,1,.39,2.53,2.24,2.24,0,0,1-.79,1.71,2.51,2.51,0,0,1-1.74.72,2.14,2.14,0,0,1-1.83-1.14,5.29,5.29,0,0,1-.74-2.9A26.27,26.27,0,0,1,74.13,14a.32.32,0,0,0-.32-.26c-.14,0-.3.12-.47.37-.39.55-.61.84-.66.89a5.3,5.3,0,0,1-4.15,2.1,1.82,1.82,0,0,1-1.4-.6,2.42,2.42,0,0,1-.54-1.66A3.11,3.11,0,0,1,68,12.28a9.69,9.69,0,0,1,4.16-1.53,1.37,1.37,0,0,0-1.07-.56l-2-.23A3.4,3.4,0,0,1,67,8.83,2.67,2.67,0,0,1,66.28,7a2.35,2.35,0,0,1,.78-1.72,2.52,2.52,0,0,1,1.77-.76,3.59,3.59,0,0,1,2.06.85c1.26.91,2,1.44,2.22,1.56a19.76,19.76,0,0,0-.38-2,8.83,8.83,0,0,1-.28-1.73A3.61,3.61,0,0,1,73.14.85,2.32,2.32,0,0,1,75.05,0a2.1,2.1,0,0,1,2,1.1,7.69,7.69,0,0,1,.52,3.34,2.36,2.36,0,0,1-.17.67,2.16,2.16,0,0,0-.16.69V7l.23.25a19.5,19.5,0,0,0,1.69-1.86,10.54,10.54,0,0,1,1.37-1.52,2.79,2.79,0,0,1,1.78-.61,2.57,2.57,0,0,1,2,.85A2.74,2.74,0,0,1,85.12,6a3.09,3.09,0,0,1-1.31,2.59,12.11,12.11,0,0,1-4.07,1.59,4.7,4.7,0,0,1-.35.33A25.42,25.42,0,0,1,84,11.94,2.63,2.63,0,0,1,85.49,14.37Z"/><path class="cls-3" d="M72.36,8.76a6.29,6.29,0,0,0-1.71-2,2.82,2.82,0,0,0-1.59-.65c-.65,0-1,.38-1,1.14a1.43,1.43,0,0,0,.76,1.27,3.92,3.92,0,0,0,2,.46A5.78,5.78,0,0,0,72.36,8.76Z"/><path class="cls-3" d="M72.59,12.9v-.65a8.47,8.47,0,0,1-.89-.19,3.55,3.55,0,0,0-2,.72,2.09,2.09,0,0,0-1.1,1.62c0,.63.36.95,1.1.95a3.65,3.65,0,0,0,2.17-1.12A1.86,1.86,0,0,0,72.59,12.9Z"/><path class="cls-3" d="M76.24,4.3q0-1.89-1.26-1.89c-.69,0-1,.36-1,1.07,0,1.82.43,3.08,1.31,3.76A4.26,4.26,0,0,0,76.24,4.3Z"/><path class="cls-4" d="M77.43,10.54a1.37,1.37,0,0,0-.48-1,1.55,1.55,0,0,0-2.2,0,1.46,1.46,0,0,0-.48,1.08,1.29,1.29,0,0,0,.55,1,1.94,1.94,0,0,0,1.25.45,1.26,1.26,0,0,0,1-.43A1.57,1.57,0,0,0,77.43,10.54Z"/><path class="cls-3" d="M77,17.69a6.51,6.51,0,0,0-.42-2.43,2,2,0,0,0-.93-1.17A4.52,4.52,0,0,0,74.86,17a2.27,2.27,0,0,0,.36,1.29,1,1,0,0,0,.85.54C76.71,18.84,77,18.45,77,17.69Z"/><path class="cls-3" d="M82.83,6.17c0-.47-.33-.7-1-.7a3.28,3.28,0,0,0-2,1.12,3.07,3.07,0,0,0-1.18,2,.34.34,0,0,0,.19.33h.77A3.51,3.51,0,0,0,81.74,8,2.36,2.36,0,0,0,82.83,6.17Z"/><path class="cls-3" d="M83.48,14.14c0-.5-.37-1-1.12-1.42a4.72,4.72,0,0,0-2.43-.66,2.2,2.2,0,0,0-1,.19l.23.77c1.42,1.43,2.56,2.15,3.41,2.15a.77.77,0,0,0,.6-.37A1.11,1.11,0,0,0,83.48,14.14Z"/><path class="cls-2" d="M217.8,14.62a2.52,2.52,0,0,1-.72,1.87,2.76,2.76,0,0,1-2.08.8,5,5,0,0,1-3-1.55c-.1-.09-.39-.4-.86-.93a3.55,3.55,0,0,0-.93-.8.53.53,0,0,0-.19.35,14.11,14.11,0,0,0,.38,1.89,11.08,11.08,0,0,1,.39,2.53,2.27,2.27,0,0,1-.78,1.71,2.54,2.54,0,0,1-1.74.72,2.15,2.15,0,0,1-1.84-1.14,5.29,5.29,0,0,1-.73-2.9,24.3,24.3,0,0,1,.77-3,.34.34,0,0,0-.33-.25c-.14,0-.3.12-.47.37-.39.55-.61.84-.65.89a5.32,5.32,0,0,1-4.16,2.1,1.79,1.79,0,0,1-1.39-.6,2.38,2.38,0,0,1-.55-1.66,3.1,3.1,0,0,1,1.42-2.54A9.69,9.69,0,0,1,204.48,11a1.37,1.37,0,0,0-1.07-.56l-2-.24a3.39,3.39,0,0,1-2.11-1.12,2.69,2.69,0,0,1-.75-1.82,2.36,2.36,0,0,1,.79-1.72,2.49,2.49,0,0,1,1.76-.76,3.64,3.64,0,0,1,2.06.84c1.26.92,2,1.45,2.22,1.57a17.33,17.33,0,0,0-.38-2,8.83,8.83,0,0,1-.28-1.73,3.61,3.61,0,0,1,.69-2.33,2.32,2.32,0,0,1,1.91-.85,2.1,2.1,0,0,1,2,1.1,7.54,7.54,0,0,1,.52,3.34,2.36,2.36,0,0,1-.17.67,2.48,2.48,0,0,0-.16.69V7.24l.24.25a18.76,18.76,0,0,0,1.68-1.87,10.2,10.2,0,0,1,1.38-1.51,2.74,2.74,0,0,1,1.77-.61,2.55,2.55,0,0,1,2,.85,2.74,2.74,0,0,1,.77,1.86,3.09,3.09,0,0,1-1.31,2.59,12.48,12.48,0,0,1-4.06,1.59,4.57,4.57,0,0,1-.36.33,25.14,25.14,0,0,1,4.63,1.47A2.63,2.63,0,0,1,217.8,14.62Z"/><path class="cls-3" d="M204.67,9A6.29,6.29,0,0,0,203,7a2.82,2.82,0,0,0-1.59-.65c-.65,0-1,.38-1,1.14a1.46,1.46,0,0,0,.76,1.27,3.92,3.92,0,0,0,2,.46A5.78,5.78,0,0,0,204.67,9Z"/><path class="cls-3" d="M204.9,13.15V12.5a6.84,6.84,0,0,1-.88-.19A3.58,3.58,0,0,0,202,13a2.11,2.11,0,0,0-1.1,1.62c0,.63.37.95,1.1.95a3.63,3.63,0,0,0,2.17-1.12A1.82,1.82,0,0,0,204.9,13.15Z"/><path class="cls-3" d="M208.55,4.55q0-1.89-1.26-1.89c-.69,0-1,.35-1,1.07,0,1.82.44,3.08,1.31,3.76A4.26,4.26,0,0,0,208.55,4.55Z"/><path class="cls-4" d="M209.74,10.79a1.37,1.37,0,0,0-.48-1,1.53,1.53,0,0,0-2.19,0,1.46,1.46,0,0,0-.48,1.08,1.27,1.27,0,0,0,.55,1,1.9,1.9,0,0,0,1.25.45,1.27,1.27,0,0,0,1-.43A1.61,1.61,0,0,0,209.74,10.79Z"/><path class="cls-3" d="M209.34,17.94a6.51,6.51,0,0,0-.42-2.43,2,2,0,0,0-.93-1.17,4.52,4.52,0,0,0-.82,2.92,2.27,2.27,0,0,0,.36,1.29,1,1,0,0,0,.86.54C209,19.09,209.34,18.7,209.34,17.94Z"/><path class="cls-3" d="M215.14,6.42c0-.47-.33-.7-1-.7a3.24,3.24,0,0,0-2,1.12,3,3,0,0,0-1.18,2,.34.34,0,0,0,.18.33h.78a3.48,3.48,0,0,0,2.13-.84A2.37,2.37,0,0,0,215.14,6.42Z"/><path class="cls-3" d="M215.79,14.39c0-.5-.37-1-1.12-1.42a4.72,4.72,0,0,0-2.43-.66,2.23,2.23,0,0,0-1,.19l.23.77c1.42,1.43,2.56,2.15,3.42,2.15a.77.77,0,0,0,.59-.37A1.05,1.05,0,0,0,215.79,14.39Z"/><path class="cls-1" d="M23.87,30.59s-2.19,12-3.27,12.77a2.3,2.3,0,0,0,2.94,1.21c1.18-2.1,1.62-9.38,2.42-12.47S23.87,30.59,23.87,30.59Z"/><path class="cls-1" d="M167.06,28.75s-2.2,12-3.27,12.77a2.3,2.3,0,0,0,2.94,1.21c1.18-2.1,1.62-9.38,2.42-12.47S167.06,28.75,167.06,28.75Z"/></g></g></svg>