<svg xmlns="http://www.w3.org/2000/svg" viewBox="0 0 34.19 32.67"><defs><style>.cls-1{fill:#ee83b5;}</style></defs><g id="Layer_2" data-name="Layer 2"><g id="Layer_1-2" data-name="Layer 1"><path class="cls-1" d="M18.57.92l4,8.11a1.61,1.61,0,0,0,1.24.9l9,1.3a1.65,1.65,0,0,1,.91,2.82l-6.47,6.31a1.67,1.67,0,0,0-.48,1.47l1.53,8.91a1.65,1.65,0,0,1-2.39,1.74l-8-4.21a1.67,1.67,0,0,0-1.54,0l-8,4.21a1.65,1.65,0,0,1-2.4-1.74l1.64-9.56a.44.44,0,0,0-.11-.36L.5,14.05a1.65,1.65,0,0,1,.92-2.82l8.94-1.3A1.63,1.63,0,0,0,11.61,9l4-8.11A1.65,1.65,0,0,1,18.57.92ZM17.09,4.6V25.37a3.41,3.41,0,0,1,1.57.39l5.27,2.77a.87.87,0,0,0,1.26-.92l-1-5.86a3.35,3.35,0,0,1,1-3l4.26-4.15a.87.87,0,0,0-.48-1.49l-5.89-.85a3.42,3.42,0,0,1-2.55-1.85L17.87,5.08A.86.86,0,0,0,17.09,4.6Z"/></g></g></svg>