<svg xmlns="http://www.w3.org/2000/svg" viewBox="0 0 48.51 38.61"><defs><style>.cls-1{fill:#ee83b5;}</style></defs><g id="Layer_2" data-name="Layer 2"><g id="Layer_1-2" data-name="Layer 1"><path class="cls-1" d="M46.1.05,34.53,0h0a2.25,2.25,0,0,0-.68.11L3.15.9A2.38,2.38,0,0,0,1.38,1,2.43,2.43,0,0,0,.24,4.26l7,14.56A2.45,2.45,0,0,0,9.39,20.2h.08l20.75-.65-.37,6.91L8.09,27.83A2.42,2.42,0,0,0,6.53,32a3.49,3.49,0,1,0,3.81.59l19.13-1.21a4.2,4.2,0,1,0,4.47-1,2.38,2.38,0,0,0,.64-1.5l.63-11.63L36.67,4.87l9.4,0h0a2.43,2.43,0,0,0,0-4.86ZM20.68,2.45,21,5.52l-3.61.09-.82-3.06Zm-6.18.16.82,3.05-3.55.09-1.3-3ZM6.41,5.89,5,2.85l3.37-.09,1.3,3.05Zm2.27,4.75L7.35,7.87l3.12-.08,1.19,2.77Zm2.22,4.65L9.62,12.62l2.89-.08,1.14,2.67Zm1.72-7.56,3.23-.08.75,2.78-2.79.08Zm3.18,7.41-1.14-2.65,2.47-.07.72,2.65ZM17.91,7.6l3.28-.09.27,2.8-2.8.07Zm2,7.41-.71-2.64,2.47-.06L21.93,15Zm6-.19-2,.06-.26-2.63,2.42-.06Zm.36-4.63-2.78.07-.28-2.8,3.27-.08Zm.37-4.82L23,5.47,22.68,2.4l4.17-.11Zm4,9.31-2.72.08.2-2.62,2.83-.07Zm.55-4.62-2.91.08.21-2.81,3-.08Zm.57-4.82-3.11.08.23-3.08,3.24-.09Z"/></g></g></svg>