<svg xmlns="http://www.w3.org/2000/svg" viewBox="0 0 20.68 18"><defs><style>.cls-1{fill:#ee83b5;}</style></defs><g id="Layer_2" data-name="Layer 2"><g id="Layer_1-2" data-name="Layer 1"><path class="cls-1" d="M20.68,5.44c0,3.61-2.46,5.44-5.91,8.17a13.87,13.87,0,0,0-3.76,4,.76.76,0,0,1-1.34,0,13.87,13.87,0,0,0-3.76-4C2.46,10.88,0,9.05,0,5.44A5.29,5.29,0,0,1,4.92,0,5.27,5.27,0,0,1,9.7,2.62a.74.74,0,0,0,1.28,0A5.27,5.27,0,0,1,15.76,0C18.22,0,20.68,1.84,20.68,5.44Zm-6.84,7,.29-.23c3.41-2.69,5-4.1,5-6.76S17.46,1.5,15.76,1.5a4.65,4.65,0,0,0-3.9,2.16,1.89,1.89,0,0,1-3.12,0A4.63,4.63,0,0,0,4.92,1.5,3.81,3.81,0,0,0,1.5,5.44c0,2.66,1.64,4.07,5.05,6.76l.29.23a18.16,18.16,0,0,1,3.16,3,.43.43,0,0,0,.68,0A17.82,17.82,0,0,1,13.84,12.43Z"/></g></g></svg>